<svg width="192" height="192" viewBox="0 0 192 192" fill="none" xmlns="http://www.w3.org/2000/svg">
<g opacity="0.8">
<path d="M57.6 115.2C78.8078 115.2 96 98.0077 96 76.8C96 55.5923 78.8078 38.4 57.6 38.4C36.3923 38.4 19.2 55.5923 19.2 76.8C19.2 98.0077 36.3923 115.2 57.6 115.2Z" fill="#FF6B6B"/>
<path d="M96 115.2C117.208 115.2 134.4 98.0077 134.4 76.8C134.4 55.5923 117.208 38.4 96 38.4C74.7923 38.4 57.6 55.5923 57.6 76.8C57.6 98.0077 74.7923 115.2 96 115.2Z" fill="#4ECDC4"/>
<path d="M134.4 115.2C155.608 115.2 172.8 98.0077 172.8 76.8C172.8 55.5923 155.608 38.4 134.4 38.4C113.192 38.4 96 55.5923 96 76.8C96 98.0077 113.192 115.2 134.4 115.2Z" fill="#45B7D1"/>
</g>
<path d="M77.5542 134.103H75.3766C75.3369 133.821 75.2557 133.571 75.133 133.352C75.0104 133.13 74.853 132.941 74.6607 132.785C74.4685 132.63 74.2464 132.51 73.9945 132.427C73.7459 132.345 73.4758 132.303 73.1842 132.303C72.6572 132.303 72.1981 132.434 71.807 132.696C71.4159 132.954 71.1127 133.332 70.8972 133.829C70.6818 134.323 70.5741 134.923 70.5741 135.629C70.5741 136.355 70.6818 136.965 70.8972 137.459C71.116 137.952 71.4209 138.325 71.812 138.577C72.2031 138.829 72.6555 138.955 73.1692 138.955C73.4576 138.955 73.7244 138.917 73.9697 138.841C74.2182 138.765 74.4387 138.653 74.6309 138.508C74.8231 138.358 74.9822 138.178 75.1082 137.966C75.2374 137.754 75.3269 137.512 75.3766 137.24L77.5542 137.25C77.4978 137.717 77.357 138.168 77.1316 138.602C76.9095 139.033 76.6096 139.419 76.2317 139.76C75.8572 140.099 75.4098 140.367 74.8894 140.566C74.3724 140.761 73.7874 140.859 73.1344 140.859C72.2263 140.859 71.4143 140.654 70.6984 140.243C69.9858 139.832 69.4223 139.237 69.008 138.458C68.597 137.679 68.3915 136.736 68.3915 135.629C68.3915 134.519 68.6004 133.574 69.018 132.795C69.4356 132.016 70.0023 131.423 70.7182 131.015C71.4342 130.604 72.2396 130.399 73.1344 130.399C73.7244 130.399 74.2713 130.482 74.7751 130.648C75.2822 130.813 75.7313 131.055 76.1224 131.373C76.5135 131.688 76.8316 132.074 77.0769 132.532C77.3255 132.989 77.4846 133.513 77.5542 134.103ZM82.5084 140.869C81.7361 140.869 81.0683 140.705 80.5048 140.377C79.9447 140.046 79.5122 139.585 79.2072 138.995C78.9023 138.402 78.7499 137.714 78.7499 136.932C78.7499 136.143 78.9023 135.453 79.2072 134.863C79.5122 134.27 79.9447 133.809 80.5048 133.481C81.0683 133.15 81.7361 132.984 82.5084 132.984C83.2806 132.984 83.9468 133.15 84.507 133.481C85.0704 133.809 85.5046 134.27 85.8095 134.863C86.1144 135.453 86.2669 136.143 86.2669 136.932C86.2669 137.714 86.1144 138.402 85.8095 138.995C85.5046 139.585 85.0704 140.046 84.507 140.377C83.9468 140.705 83.2806 140.869 82.5084 140.869ZM82.5183 139.229C82.8696 139.229 83.163 139.129 83.3983 138.93C83.6336 138.728 83.8109 138.453 83.9303 138.105C84.0529 137.757 84.1142 137.361 84.1142 136.917C84.1142 136.473 84.0529 136.077 83.9303 135.729C83.8109 135.381 83.6336 135.105 83.3983 134.903C83.163 134.701 82.8696 134.6 82.5183 134.6C82.1637 134.6 81.8654 134.701 81.6234 134.903C81.3848 135.105 81.2042 135.381 81.0815 135.729C80.9622 136.077 80.9026 136.473 80.9026 136.917C80.9026 137.361 80.9622 137.757 81.0815 138.105C81.2042 138.453 81.3848 138.728 81.6234 138.93C81.8654 139.129 82.1637 139.229 82.5183 139.229ZM89.7619 130.538V140.72H87.644V130.538H89.7619ZM94.9088 140.869C94.1365 140.869 93.4687 140.705 92.9052 140.377C92.3451 140.046 91.9126 139.585 91.6076 138.995C91.3027 138.402 91.1502 137.714 91.1502 136.932C91.1502 136.143 91.3027 135.453 91.6076 134.863C91.9126 134.27 92.3451 133.809 92.9052 133.481C93.4687 133.15 94.1365 132.984 94.9088 132.984C95.681 132.984 96.3472 133.15 96.9073 133.481C97.4708 133.809 97.905 134.27 98.2099 134.863C98.5148 135.453 98.6673 136.143 98.6673 136.932C98.6673 137.714 98.5148 138.402 98.2099 138.995C97.905 139.585 97.4708 140.046 96.9073 140.377C96.3472 140.705 95.681 140.869 94.9088 140.869ZM94.9187 139.229C95.27 139.229 95.5634 139.129 95.7987 138.93C96.034 138.728 96.2113 138.453 96.3306 138.105C96.4533 137.757 96.5146 137.361 96.5146 136.917C96.5146 136.473 96.4533 136.077 96.3306 135.729C96.2113 135.381 96.034 135.105 95.7987 134.903C95.5634 134.701 95.27 134.6 94.9187 134.6C94.5641 134.6 94.2658 134.701 94.0238 134.903C93.7852 135.105 93.6046 135.381 93.4819 135.729C93.3626 136.077 93.3029 136.473 93.3029 136.917C93.3029 137.361 93.3626 137.757 93.4819 138.105C93.6046 138.453 93.7852 138.728 94.0238 138.93C94.2658 139.129 94.5641 139.229 94.9187 139.229ZM100.044 140.72V133.084H102.098V134.416H102.177C102.316 133.942 102.55 133.584 102.878 133.342C103.206 133.097 103.584 132.974 104.012 132.974C104.118 132.974 104.232 132.981 104.355 132.994C104.477 133.007 104.585 133.026 104.678 133.049V134.928C104.579 134.898 104.441 134.872 104.265 134.849C104.09 134.825 103.929 134.814 103.783 134.814C103.472 134.814 103.193 134.882 102.948 135.018C102.706 135.15 102.514 135.336 102.371 135.574C102.232 135.813 102.162 136.088 102.162 136.4V140.72H100.044ZM105.813 140.72V130.538H107.965V135.028H108.1L111.764 130.538H114.344L110.566 135.097L114.389 140.72H111.813L109.024 136.534L107.965 137.827V140.72H105.813ZM115.904 140.72V133.084H118.022V140.72H115.904ZM116.968 132.099C116.653 132.099 116.383 131.995 116.157 131.786C115.935 131.574 115.824 131.32 115.824 131.025C115.824 130.734 115.935 130.483 116.157 130.275C116.383 130.063 116.653 129.957 116.968 129.957C117.283 129.957 117.551 130.063 117.773 130.275C117.998 130.483 118.111 130.734 118.111 131.025C118.111 131.32 117.998 131.574 117.773 131.786C117.551 131.995 117.283 132.099 116.968 132.099ZM123.78 133.084V134.675H119.181V133.084H123.78ZM120.225 131.254H122.343V138.373C122.343 138.569 122.373 138.721 122.433 138.831C122.492 138.937 122.575 139.011 122.681 139.055C122.791 139.098 122.917 139.119 123.059 139.119C123.159 139.119 123.258 139.111 123.357 139.094C123.457 139.074 123.533 139.059 123.586 139.05L123.919 140.626C123.813 140.659 123.664 140.697 123.472 140.74C123.28 140.786 123.046 140.814 122.771 140.824C122.26 140.844 121.813 140.776 121.428 140.621C121.047 140.465 120.751 140.223 120.539 139.895C120.326 139.567 120.222 139.152 120.225 138.652V131.254Z" fill="#333333"/>
<g opacity="0.9">
<path d="M48 61.44C50.1207 61.44 51.84 59.7208 51.84 57.6C51.84 55.4792 50.1207 53.76 48 53.76C45.8792 53.76 44.16 55.4792 44.16 57.6C44.16 59.7208 45.8792 61.44 48 61.44Z" fill="#FFD700"/>
<path d="M144 71.04C146.121 71.04 147.84 69.3208 147.84 67.2C147.84 65.0792 146.121 63.36 144 63.36C141.879 63.36 140.16 65.0792 140.16 67.2C140.16 69.3208 141.879 71.04 144 71.04Z" fill="#FFD700"/>
<path d="M96 51.84C98.1207 51.84 99.84 50.1208 99.84 48C99.84 45.8792 98.1207 44.16 96 44.16C93.8792 44.16 92.16 45.8792 92.16 48C92.16 50.1208 93.8792 51.84 96 51.84Z" fill="#FFD700"/>
</g>
</svg>
